# xmcd CD database file
#
# Track frame offsets:
#	150
#	14877
#	34012
#	52355
#	63425
#	77222
#	100867
#	111485
#	126837
#	142747
#	155047
#	168980
#	180645
#	197285
#	207092
#
# Disc length: 2933 seconds
#
# Revision: 0
# Processed by: cddbd v1.5.1PL2 Copyright (c) Steve Scherf et al.
# Submitted via: CDex 1.51
#
DISCID=d50b730f
DTITLE=Freeson - Rhythm'n' Blues-Party
DYEAR=1900
DGENRE=Jazz
TTITLE0=Big fine Girl
TTITLE1=They call me the breeze
TTITLE2=Honest I do
TTITLE3=Two old cats like us
TTITLE4=24 Hours love
TTITLE5=Further on up on the road
TTITLE6=Route 66
TTITLE7=Tulsa time
TTITLE8=Love Utopia
TTITLE9=Oee Baby
TTITLE10=Lody
TTITLE11=Born to boogie
TTITLE12=Houston
TTITLE13=Pack fair ans square
TTITLE14=Dä Holzwurm
EXTD=
EXTT0=
EXTT1=
EXTT2=
EXTT3=
EXTT4=
EXTT5=
EXTT6=
EXTT7=
EXTT8=
EXTT9=
EXTT10=
EXTT11=
EXTT12=
EXTT13=
EXTT14=
PLAYORDER=
